<?xml version="1.0" standalone="no"?>
<!DOCTYPE svg PUBLIC "-//W3C//DTD SVG 20010904//EN"
 "http://www.w3.org/TR/2001/REC-SVG-20010904/DTD/svg10.dtd">
<svg version="1.0" xmlns="http://www.w3.org/2000/svg"
 width="127.000000pt" height="127.000000pt" viewBox="0 0 127.000000 127.000000"
 preserveAspectRatio="xMidYMid meet">
<metadata>
Created by potrace 1.14, written by Peter Selinger 2001-2017
</metadata>
<g transform="translate(0.000000,127.000000) scale(0.100000,-0.100000)"
fill="#000000" stroke="none">
<path d="M311 1159 c-61 -58 -86 -117 -86 -209 0 -73 2 -78 56 -175 152 -274
277 -482 307 -511 43 -41 105 -72 162 -80 49 -7 155 13 171 32 8 10 -17 60
-102 206 -62 106 -120 207 -129 223 -30 53 -211 367 -267 463 -30 50 -57 92
-61 92 -4 0 -27 -18 -51 -41z"/>
<path d="M845 983 c-53 -52 -86 -128 -86 -200 0 -76 11 -111 63 -197 23 -39
52 -87 63 -107 76 -136 121 -209 130 -209 15 1 58 40 87 80 57 78 68 203 24
289 -56 112 -219 381 -230 381 -7 0 -30 -17 -51 -37z"/>
<path d="M158 590 c-82 -25 -126 -114 -94 -191 59 -142 263 -110 280 43 6 58
-33 119 -91 144 -36 15 -55 16 -95 4z"/>
</g>
</svg>
